<?xml version="1.0" encoding="utf-8"?>
<!-- Generator: Adobe Illustrator 24.2.1, SVG Export Plug-In . SVG Version: 6.00 Build 0)  -->
<svg version="1.1" id="Layer_1" xmlns="http://www.w3.org/2000/svg" xmlns:xlink="http://www.w3.org/1999/xlink" x="0px" y="0px"
	 viewBox="0 0 100 100" style="enable-background:new 0 0 100 100;" xml:space="preserve">
<style type="text/css">
	.st0{fill:#1A1A1A;}
	.st1{fill:none;stroke:#1A1A1A;stroke-width:2;stroke-miterlimit:10;}
</style>
<g>
	<path class="st0" d="M75.6,75.4c-1.4,1.4-2.3,3.3-2.3,5.3H33.7c-0.5-2.2-2-4.1-4.1-5.3c2.8-8.5,12-14.7,22.9-14.7
		C63.6,60.7,72.8,67,75.6,75.4z"/>
</g>
<path class="st0" d="M40.3,72.3c-0.7,2.7-1.1,5.5-1.1,8.4H20.4c1.1-6.2,6.3-10.8,12.5-10.8C35.7,69.9,38.2,70.8,40.3,72.3z"/>
<path class="st0" d="M80.6,80.7h-16c0-1.2-0.3-2.4-0.8-3.5c1.7-1.2,4.4-2,7.3-2C76.2,75.2,80.5,77.7,80.6,80.7z"/>
<path class="st0" d="M39.9,51.5c7.3,1.4,12.5,0.5,13.7-2.6c0.2-0.6,0.3-1.2,0.3-1.9c0-0.6-0.2-1.2-0.4-1.8
	C50.4,44.9,45.5,47.2,39.9,51.5z"/>
<g>
	<path class="st0" d="M51.8,31.3c0.1,2-2.8,5.3-7.5,8.5c-0.6,0.4-1.5,0-1.4-0.7c0.8-5.5,2.6-9.5,4.8-10.2c0,0,0,0,0,0
		c0.1,0,0.2-0.1,0.3-0.1c0,0,0,0,0,0c0.7-0.2,1.4-0.2,2,0c0.1,0,0.2,0.1,0.3,0.1l0,0c0,0,0.1,0,0.1,0.1c0.7,0.4,1.1,1,1.2,2
		c0,0,0,0,0,0C51.8,31,51.8,31.1,51.8,31.3C51.8,31.2,51.8,31.3,51.8,31.3z"/>
	<path class="st0" d="M63.4,34.8c0.2,0.2,0,0.4-0.2,0.4c-4.9-1-8.2-2.6-8.8-4.5c-0.1-0.3-0.1-0.7,0-1.1c0.1-0.2,0.2-0.5,0.3-0.7
		c0.1-0.1,0.2-0.1,0.3-0.1C57,29.4,60,31.6,63.4,34.8z"/>
	<path class="st0" d="M59.7,15c0.6-0.6,1.7,0,1.5,0.8c-1.8,5.3-4.1,9.3-6.1,10.4c0,0,0,0,0,0c-0.1,0.1-0.2,0.1-0.3,0.1c0,0,0,0,0,0
		c-0.3,0.1-0.6,0.2-0.9,0.3c-0.5,0.1-1-0.2-1-0.6c0-0.1-0.1-0.3-0.1-0.4c0,0,0,0,0,0c0-0.1,0-0.2,0-0.4c0,0,0,0,0,0
		C52.5,22.8,55.3,19,59.7,15z"/>
	<path class="st0" d="M50,23c-1.4-0.7-2.8-3.1-3.8-6.5c-0.2-0.7,0.8-1.2,1.3-0.6c2.2,2.9,3.5,5.4,3.4,6.8c0,0.2-0.1,0.4-0.1,0.5
		C50.5,23.2,50.2,23.2,50,23z"/>
	<path class="st0" d="M52.8,23.6c-0.7-1.4-0.1-4.2,1.6-7.6c0.3-0.6,1.3-0.4,1.3,0.3c-0.2,3.7-0.9,6.5-1.9,7.6
		c-0.1,0.1-0.3,0.3-0.4,0.3C53.1,24,52.9,23.9,52.8,23.6z"/>
	<path class="st0" d="M54,22.7c1.5-1.5,6-2.1,11.6-1.5c0.8,0.1,1,1,0.5,1.4c-4.6,3.6-8.9,5.4-11,4.5c0,0,0,0,0,0
		c-0.1,0-0.2-0.1-0.3-0.2c0,0,0,0,0,0c-0.6-0.4-1.1-0.8-1.4-1.3c0-0.1-0.1-0.2-0.1-0.2l0,0c0,0,0-0.1,0-0.1c-0.2-0.7,0-1.5,0.6-2.2
		c0,0,0,0,0,0C53.9,22.9,53.9,22.9,54,22.7C54,22.8,54,22.7,54,22.7z"/>
	<path class="st0" d="M41.6,35.1c-0.8,0.5-1.8-0.5-1.2-1.2c2-2.2,3.9-3.6,5.3-3.8c0.4,0,0.7,0,1,0.1c0.2,0.1,0.4,0.2,0.6,0.4
		C46.4,31.8,44.4,33.4,41.6,35.1z"/>
	<path class="st0" d="M36.5,22c-0.7-0.5-0.1-1.6,0.7-1.4c5.9,1,10.3,2.8,11.6,4.5c0,0,0,0,0,0c0.1,0.1,0.1,0.2,0.2,0.3c0,0,0,0,0,0
		c0.2,0.3,0.3,0.6,0.4,0.8c0.1,0.4-0.1,0.9-0.6,1c-0.2,0-0.3,0.1-0.5,0.1c0,0,0,0,0,0c-0.1,0-0.3,0-0.4,0.1c0,0,0,0,0,0
		C45.5,27.8,41.2,25.7,36.5,22z"/>
	<path class="st0" d="M56.7,28.8c1.4-0.3,3.8,0.6,6.7,2.3c0.8,0.5,0.2,1.7-0.7,1.4c-3.3-0.9-5.6-2-6.4-3c-0.1-0.2-0.2-0.3-0.2-0.5
		C56.2,28.9,56.5,28.8,56.7,28.8z"/>
	<path class="st0" d="M55,31.3c0.9,1.8-0.4,5.9-3.3,10.5c-0.4,0.6-1.4,0.5-1.6-0.2c-1.6-5.2-1.6-9.5,0-11c0,0,0,0,0,0
		c0.1-0.1,0.2-0.1,0.3-0.2c0,0,0,0,0,0c0.6-0.4,1.2-0.7,1.9-0.7c0.1,0,0.2,0,0.3,0l0,0c0,0,0.1,0,0.1,0c0.8,0.1,1.4,0.5,2,1.3
		c0,0,0,0,0,0C54.9,31.1,55,31.2,55,31.3C55,31.3,55,31.3,55,31.3z"/>
	<path class="st0" d="M66.1,26.7c0.9,0.1,1.1,1.3,0.2,1.6c-5,1.6-9,1.9-10.9,0.8c-0.4-0.2-0.7-0.5-0.9-0.9c0-0.1-0.1-0.2-0.1-0.3
		c-0.2-0.4,0.1-0.9,0.6-1C57.4,26.3,61.3,26.2,66.1,26.7z"/>
	<path class="st0" d="M50.3,13.5c0.2-0.8,1.4-0.9,1.7-0.1c1.9,5.2,2.4,9.7,1.4,11.6c0,0,0,0,0,0c-0.1,0.1-0.1,0.2-0.2,0.3
		c0,0,0,0,0,0c-0.2,0.3-0.4,0.5-0.6,0.7c-0.3,0.3-0.9,0.3-1.2,0c-0.1-0.1-0.2-0.2-0.3-0.3c0,0,0,0,0,0c-0.1-0.1-0.2-0.2-0.2-0.3
		c0,0,0,0,0,0C49.3,23.6,49.2,19.1,50.3,13.5z"/>
	<path class="st0" d="M49.6,28.7c-2,1.5-6.4,1.3-12-0.3c-0.9-0.2-0.8-1.4,0.1-1.6c5.9-0.9,10.4-0.8,12.1,0.5c0,0,0,0,0,0
		c0.4,0.3,0.4,0.8,0.1,1.2C49.9,28.5,49.7,28.6,49.6,28.7z"/>
	<path class="st0" d="M61,36.9c0.4,0.6-0.4,1.3-1,0.8c-3-2-4.9-4-5.2-5.5c-0.1-0.3,0-0.6,0.1-0.9c0.1-0.2,0.3-0.4,0.5-0.6
		C57,31.7,58.9,33.9,61,36.9z"/>
	<path class="st0" d="M47.7,27.3c-2.2-0.8-4.8-4.9-6.6-10.5c-0.2-0.7,0.6-1.3,1.3-0.9c5.6,3,9.3,6.4,9.3,8.7c0,0,0,0,0,0
		c0,0.1,0,0.2,0,0.4c0,0,0,0,0,0c-0.1,0.7-0.3,1.4-0.7,1.8c-0.1,0.1-0.1,0.1-0.2,0.2l0,0c0,0-0.1,0.1-0.1,0.1
		c-0.6,0.5-1.5,0.5-2.5,0.3c0,0,0,0-0.1,0C48,27.3,47.9,27.3,47.7,27.3C47.8,27.3,47.8,27.3,47.7,27.3z"/>
	<path class="st0" d="M36.8,33.2c-0.9,0.1-1.4-0.9-0.7-1.4c4.8-3.4,9.2-5.4,11.5-5.2c0,0,0,0,0,0c0.1,0,0.2,0,0.4,0.1c0,0,0,0,0,0
		c0.3,0.1,0.6,0.2,0.9,0.3c0.4,0.2,0.6,0.7,0.4,1.1c-0.1,0.1-0.2,0.3-0.2,0.4c0,0,0,0,0,0c-0.1,0.1-0.1,0.2-0.2,0.3c0,0,0,0,0,0
		C47.4,30.6,42.8,32.3,36.8,33.2z"/>
	<path class="st0" d="M54,30.5c1.7,0.8,3.4,3.9,4.7,8.4c0.1,0.3-0.4,0.6-0.6,0.3c-3.1-3.6-5-6.7-5-8.3c0-0.2,0-0.4,0.1-0.5
		C53.4,30.3,53.7,30.3,54,30.5z"/>
</g>
<path class="st0" d="M56.4,49c0,7.8-1.1,14.9-2.9,19.7H52c1.2-5.4,1.9-12.4,1.9-19.9c0-5.2-0.3-10-0.9-14.3h1.9
	C55.8,38.6,56.4,43.6,56.4,49z"/>
<path class="st0" d="M68.7,50.5c-3.4-4.7-7-7.4-9.5-7c-0.5,0.1-0.9,0.2-1.3,0.5c-0.3,0.2-0.6,0.5-0.8,0.9
	C58.6,46.7,62.9,48.8,68.7,50.5z"/>
<path class="st0" d="M64.2,83h-16c0-1.2-0.3-2.4-0.8-3.5c1.7-1.2,4.4-2,7.3-2C59.9,77.5,64.1,79.9,64.2,83z"/>
<path class="st0" d="M35,84.1h13.8c0-1.2,0.2-2.4,0.7-3.5c-1.5-1.2-3.8-2-6.3-2C38.8,78.6,35.1,81.1,35,84.1z"/>
<polygon class="st1" points="51,98.8 5.2,74.9 5,26.5 50.6,2 96.3,25.9 96.5,74.3 "/>
</svg>
